<svg version="1.0" xmlns="http://www.w3.org/2000/svg"
 width="500.000000pt" height="500.000000pt" viewBox="0 0 500.000000 500.000000"
 preserveAspectRatio="xMidYMid meet">

<g transform="translate(0.000000,500.000000) scale(0.100000,-0.100000)"
fill="#000000" stroke="none">
<path d="M2273 4910 c-745 -73 -1417 -477 -1827 -1098 -201 -305 -325 -637
-382 -1022 -24 -168 -22 -511 5 -687 115 -758 561 -1407 1224 -1783 275 -156
571 -254 907 -301 114 -16 481 -16 600 0 562 75 1053 316 1444 707 844 846
955 2188 261 3160 -395 554 -967 903 -1652 1009 -120 18 -454 27 -580 15z
m-305 -1330 c135 -38 272 -120 369 -223 54 -57 135 -175 147 -214 11 -34 19
-29 45 28 89 186 293 351 507 410 68 18 96 20 243 17 140 -4 175 -8 221 -27
54 -21 54 -21 15 -17 -22 3 -69 10 -105 16 -175 31 -422 -40 -566 -163 -92
-79 -142 -143 -198 -254 -47 -94 -46 -115 2 -34 45 78 147 183 226 235 300
198 696 157 951 -98 164 -164 246 -396 216 -614 -36 -271 -264 -528 -551 -622
-184 -60 -425 -39 -607 53 -82 42 -70 47 25 11 48 -18 125 -38 170 -44 252
-37 530 76 684 277 65 84 79 116 24 56 -96 -106 -233 -190 -376 -229 -98 -27
-281 -25 -383 4 -227 65 -419 235 -503 444 -10 27 -21 48 -24 48 -3 0 -14 -21
-24 -48 -87 -212 -277 -381 -498 -442 -263 -73 -535 -1 -734 194 -78 77 -80
74 -10 -21 53 -72 154 -158 234 -201 198 -103 414 -117 624 -38 95 36 107 31
25 -11 -275 -139 -623 -107 -857 78 -296 234 -386 577 -235 894 199 416 718
562 1101 309 79 -52 181 -157 227 -235 43 -74 49 -65 10 18 -72 155 -186 276
-332 352 -140 73 -311 104 -441 81 -36 -6 -83 -13 -105 -16 -36 -4 -37 -3 -15
6 66 29 132 39 275 39 122 1 164 -3 223 -19z"/>
<path d="M1665 3270 c-210 -46 -355 -197 -387 -403 -34 -220 99 -444 310 -520
79 -28 200 -33 282 -12 234 60 389 295 352 532 -28 180 -148 325 -316 383 -67
23 -184 33 -241 20z m281 -235 c170 -50 233 -258 119 -393 -48 -57 -109 -86
-184 -86 -81 0 -131 23 -189 89 -46 53 -68 122 -58 188 10 66 21 76 46 45 63
-80 185 -8 146 87 -8 18 -22 38 -32 43 -23 13 -15 22 28 32 50 12 70 11 124
-5z"/>
<path d="M3151 3265 c-194 -44 -336 -192 -372 -388 -45 -243 126 -495 371
-548 71 -15 192 -7 262 19 210 75 344 299 310 519 -43 275 -305 458 -571 398z
m54 -239 c95 -45 145 -121 145 -221 0 -141 -105 -245 -244 -245 -78 1 -131 24
-183 83 -48 56 -68 118 -60 189 8 67 21 79 47 45 17 -22 30 -27 65 -27 35 0
48 5 64 26 29 37 27 89 -4 120 -31 30 -31 32 -2 44 42 17 120 11 172 -14z"/>
</g>
	<style>
    @media (prefers-color-scheme:dark){:root{filter:invert(100%)}}
  </style>
</svg>
